 <svg version="1.0" xmlns="http://www.w3.org/2000/svg" width="700.000000pt" height="995.000000pt" viewBox="0 0 700.000000 995.000000" preserveAspectRatio="xMidYMid meet">
<metadata>
Created by potrace 1.12, written by Peter Selinger 2001-2015
</metadata>
<g transform="translate(0.000000,995.000000) scale(0.100000,-0.100000)" fill="#344356" stroke="none">
<path d="M5682 9667 c-9 -11 -12 -148 -10 -568 l3 -554 75 -6 c84 -8 145 -20
175 -36 11 -6 38 -19 60 -28 40 -17 105 -49 156 -77 29 -15 75 -50 152 -115
28 -24 57 -43 64 -43 24 0 35 48 19 83 -8 18 -17 59 -19 91 -3 32 -11 64 -16
69 -6 6 -11 32 -11 57 0 26 -3 50 -7 54 -7 7 -16 37 -42 146 -10 40 -30 97
-42 122 -5 10 -9 24 -9 33 0 8 -6 29 -14 47 -8 18 -22 51 -31 73 -30 72 -136
280 -151 296 -8 8 -14 19 -14 22 0 6 -31 54 -96 152 -12 17 -55 66 -95 108
-78 81 -123 104 -147 74z"></path>
<path d="M2465 8974 c-11 -3 -24 -10 -29 -15 -6 -5 -39 -9 -74 -9 -35 0 -78
-6 -95 -14 -18 -8 -52 -17 -77 -19 -54 -6 -145 -29 -156 -40 -4 -4 -17 -7 -28
-7 -22 0 -110 -31 -122 -43 -4 -4 -15 -7 -25 -7 -9 0 -30 -6 -46 -14 -15 -8
-55 -27 -88 -42 -33 -16 -87 -44 -120 -62 -33 -19 -94 -52 -135 -74 -41 -22
-77 -43 -80 -47 -8 -12 -182 -114 -240 -142 -86 -42 -161 -75 -210 -94 -25 -9
-52 -21 -60 -25 -9 -4 -30 -11 -48 -14 -17 -4 -34 -12 -37 -17 -4 -5 -16 -9
-28 -9 -12 0 -31 -7 -41 -15 -11 -8 -27 -15 -36 -15 -25 0 -70 -53 -70 -81 0
-15 12 -36 27 -51 37 -33 129 -88 149 -88 25 0 54 -19 54 -36 0 -9 -36 -54
-80 -102 -44 -47 -87 -101 -95 -119 -9 -17 -20 -35 -25 -38 -6 -3 -10 -15 -10
-26 0 -10 -4 -19 -10 -19 -5 0 -10 -8 -10 -19 0 -10 -7 -24 -15 -31 -8 -7 -15
-23 -15 -36 0 -12 -4 -26 -10 -29 -5 -3 -10 -16 -10 -29 0 -12 -7 -31 -15 -42
-8 -10 -15 -28 -15 -39 -1 -11 -10 -33 -21 -50 -10 -16 -22 -37 -26 -45 -35
-76 -184 -228 -278 -285 -90 -54 -111 -131 -45 -165 112 -58 166 -70 306 -70
168 0 166 2 167 -119 0 -57 -4 -96 -11 -103 -7 -7 -12 -25 -12 -41 0 -15 -5
-38 -12 -50 -6 -12 -15 -43 -20 -69 -19 -115 -26 -145 -37 -171 -6 -16 -11
-45 -11 -64 0 -20 -4 -50 -9 -67 -13 -41 -31 -152 -41 -256 -4 -47 -13 -123
-18 -170 -20 -164 -20 -755 0 -898 5 -37 13 -107 18 -157 12 -119 33 -252 42
-261 5 -4 8 -26 8 -49 0 -24 7 -59 15 -78 8 -20 15 -52 15 -71 0 -19 4 -38 10
-41 5 -3 10 -23 10 -44 0 -20 7 -46 15 -57 8 -10 15 -33 15 -51 0 -17 5 -35
10 -38 6 -3 10 -17 10 -30 0 -13 6 -39 14 -57 8 -18 22 -60 32 -93 10 -33 22
-64 26 -70 4 -5 8 -16 8 -25 0 -16 17 -59 41 -102 5 -10 9 -24 9 -32 0 -8 6
-27 14 -43 8 -15 25 -53 39 -83 45 -100 137 -284 167 -335 16 -27 33 -57 37
-65 15 -34 159 -259 197 -309 23 -29 52 -70 65 -90 13 -20 30 -40 36 -46 7 -5
38 -44 71 -85 72 -92 385 -405 462 -463 31 -23 62 -47 67 -53 6 -6 37 -31 70
-55 88 -63 85 -58 85 -148 0 -44 4 -100 10 -123 8 -38 16 -82 37 -208 3 -19 9
-39 13 -45 4 -5 17 -43 29 -82 13 -40 27 -75 32 -78 5 -4 9 -15 9 -26 0 -10 5
-19 10 -19 6 0 10 -8 10 -19 0 -10 7 -24 15 -31 8 -7 15 -19 15 -27 0 -12 26
-60 40 -73 3 -3 14 -22 25 -42 11 -21 23 -38 27 -38 5 0 8 -5 8 -11 0 -5 26
-45 57 -87 97 -132 269 -306 397 -403 82 -62 229 -158 242 -158 6 -1 17 -8 24
-16 7 -8 21 -15 30 -15 10 0 20 -3 22 -7 3 -8 43 -28 113 -58 22 -9 49 -20 60
-25 11 -5 31 -11 45 -13 14 -3 39 -10 55 -15 157 -55 403 -77 523 -48 118 29
153 36 184 36 36 0 140 34 188 61 8 4 35 19 60 31 55 28 218 183 247 235 12
21 29 54 38 73 9 19 23 48 31 63 8 16 14 39 14 51 0 12 5 27 11 33 17 17 24
267 9 323 -6 25 -14 56 -17 70 -7 35 -83 190 -93 190 -5 0 -11 8 -15 19 -19
62 -247 230 -313 231 -10 0 -26 7 -36 15 -12 9 -42 15 -73 15 -29 0 -62 5 -73
12 -15 10 -29 10 -65 0 -25 -7 -68 -12 -95 -12 -45 0 -51 3 -65 30 -19 37 -5
66 39 76 16 4 35 12 42 18 38 39 103 129 128 179 l29 58 -7 367 c-3 202 -9
789 -12 1304 -7 915 -7 938 12 944 37 14 180 115 250 176 87 77 100 88 192
161 40 32 84 75 97 95 24 36 76 106 93 127 5 6 17 24 27 40 10 17 29 41 41 55
29 34 149 211 181 269 31 54 36 64 56 111 39 90 62 156 92 255 14 50 31 104
37 120 6 17 13 50 15 75 3 25 9 49 14 54 5 6 9 29 9 52 0 24 5 55 12 71 6 15
15 55 19 88 23 174 28 206 36 217 4 7 11 54 15 103 7 107 26 216 39 230 5 5 9
18 9 29 0 11 6 38 14 61 8 22 19 60 26 85 7 25 18 59 25 75 28 66 67 151 76
165 5 8 12 22 16 30 9 21 66 107 103 155 16 22 42 58 57 80 31 45 83 116 115
158 41 55 124 129 243 220 66 50 129 102 140 116 11 14 41 47 67 72 62 61 63
86 5 140 -48 44 -180 129 -200 129 -7 0 -21 6 -32 14 -11 7 -31 16 -45 19 -14
3 -54 13 -90 23 -94 25 -447 31 -502 9 -21 -8 -54 -15 -73 -15 -18 0 -36 -4
-39 -9 -3 -5 -23 -11 -43 -14 -35 -4 -59 -11 -133 -40 -84 -32 -200 -88 -218
-104 -7 -7 -19 -13 -26 -13 -7 0 -21 -8 -32 -18 -10 -9 -32 -26 -49 -36 -83
-53 -275 -251 -275 -285 0 -6 -3 -11 -7 -11 -5 0 -17 -18 -27 -40 -21 -43 -33
-50 -42 -22 -34 105 -140 292 -244 428 -58 78 -210 229 -284 285 -70 52 -166
119 -171 119 -4 0 -73 41 -130 78 -11 6 -27 15 -35 18 -8 3 -26 11 -40 16 -68
29 -87 37 -110 46 -14 5 -42 17 -63 26 -21 9 -46 16 -56 16 -10 0 -32 7 -47
15 -16 8 -41 15 -56 15 -15 0 -30 5 -33 10 -3 6 -23 10 -44 10 -21 0 -55 7
-74 15 -21 9 -67 15 -111 15 -41 0 -86 4 -99 9 -28 11 -292 23 -322 15z m655
-1235 c19 -6 62 -15 95 -19 98 -14 149 -26 172 -38 12 -7 33 -12 47 -12 14 0
28 -4 31 -10 3 -5 14 -10 23 -10 9 0 30 -7 46 -15 15 -8 33 -15 38 -15 9 0
135 -61 190 -92 53 -30 207 -148 253 -195 28 -27 73 -83 100 -124 28 -41 53
-75 58 -77 4 -2 7 -12 7 -22 0 -9 7 -23 15 -30 8 -7 15 -21 15 -31 0 -10 5
-21 10 -24 6 -3 10 -15 10 -27 0 -11 6 -34 14 -51 25 -57 36 -205 21 -302 -7
-48 -51 -150 -98 -227 -19 -32 -114 -175 -124 -187 -2 -3 -9 1 -15 7 -9 9 -8
24 5 65 19 58 29 212 30 452 1 168 -8 250 -28 275 -6 8 -20 33 -30 55 -25 54
-87 118 -138 142 -104 50 -121 54 -238 55 l-114 1 -76 -47 c-42 -26 -88 -59
-102 -74 -35 -38 -77 -118 -77 -148 0 -14 -5 -46 -11 -70 -12 -46 -3 -115 23
-186 10 -27 119 -138 136 -138 5 0 23 -7 38 -15 21 -11 62 -15 147 -15 119 0
138 -4 186 -45 33 -28 71 -91 71 -118 0 -13 5 -28 10 -33 15 -15 21 -176 9
-231 -6 -26 -14 -79 -18 -118 -17 -156 -64 -206 -382 -398 -214 -129 -371
-184 -652 -228 -83 -13 -157 -9 -327 17 -109 16 -339 66 -400 86 -19 6 -52 15
-72 20 -77 17 -114 26 -148 39 -60 21 -76 27 -170 67 -14 5 -32 13 -40 16 -8
3 -22 10 -30 15 -8 5 -32 17 -53 27 -22 11 -50 32 -64 48 -24 28 -24 32 -19
165 5 159 14 242 27 256 5 5 9 16 9 25 0 22 55 126 95 180 64 86 60 85 242 85
116 0 166 4 174 13 7 6 19 12 26 12 22 0 126 80 158 122 17 21 36 45 43 53 6
7 12 20 12 27 0 8 4 18 9 23 12 13 31 140 31 208 0 157 -89 260 -294 342 -50
20 -172 20 -221 0 -20 -9 -51 -29 -68 -45 -18 -16 -58 -52 -89 -81 -32 -29
-58 -55 -58 -59 0 -4 -20 -37 -44 -73 -24 -36 -58 -96 -76 -134 -17 -37 -38
-81 -46 -96 -8 -16 -14 -37 -14 -47 0 -10 -4 -22 -10 -25 -5 -3 -10 -18 -10
-33 0 -15 -6 -36 -14 -47 -25 -37 -45 -240 -45 -458 1 -87 -2 -161 -5 -165 -4
-3 -13 3 -21 14 -27 34 -105 164 -105 174 0 6 -4 18 -9 28 -27 53 -41 96 -41
125 0 18 -5 38 -11 44 -14 14 -14 229 0 266 6 16 11 43 11 62 0 19 4 36 9 40
5 3 13 20 17 37 3 18 10 39 14 48 4 8 16 33 26 55 63 134 174 276 319 405 51
46 182 140 194 140 5 0 11 4 13 8 5 12 168 96 258 134 14 6 37 17 52 24 14 8
33 14 41 14 8 0 28 7 43 15 16 8 37 15 46 15 9 0 20 5 23 10 3 6 18 10 33 10
14 0 44 6 67 14 63 21 132 36 173 36 20 1 60 7 87 15 63 17 502 21 555 4z"></path>
<path d="M2670 6853 c-114 -39 -200 -95 -200 -133 0 -10 13 -32 29 -49 27 -29
33 -31 100 -31 70 0 72 -1 111 -41 22 -23 40 -51 40 -64 0 -12 11 -34 25 -49
21 -23 31 -26 58 -21 44 10 57 23 57 56 0 67 88 149 160 149 33 0 50 17 50 51
0 43 -69 93 -180 133 -57 20 -188 19 -250 -1z"></path>
<path d="M3356 6409 l-36 -31 -124 1 c-93 0 -133 4 -155 15 -22 12 -61 16
-153 16 -123 0 -124 0 -193 -36 -39 -20 -90 -41 -115 -46 -67 -15 -199 -21
-213 -10 -20 15 -96 23 -117 12 -29 -15 -25 -35 13 -64 62 -48 165 -61 300
-38 37 7 75 16 85 20 135 66 120 62 250 62 80 0 131 -4 145 -12 36 -20 283
-17 329 5 38 17 88 73 88 98 0 46 -56 51 -104 8z"></path>
<path d="M6344 8099 c-10 -12 -42 -39 -70 -60 -29 -21 -80 -65 -115 -98 -35
-34 -77 -71 -94 -83 -16 -12 -66 -61 -110 -109 -44 -49 -119 -128 -166 -177
-48 -49 -101 -108 -118 -132 l-31 -43 0 -241 c1 -256 14 -686 26 -824 6 -74
10 -85 30 -94 20 -9 31 -4 85 38 59 46 217 219 218 238 1 4 24 39 51 77 28 38
50 75 50 83 0 8 4 17 9 21 12 7 71 127 71 143 0 7 5 12 10 12 6 0 10 7 10 15
0 13 20 65 41 107 5 10 9 26 9 36 0 9 6 26 14 37 7 11 16 34 19 50 2 17 12 55
22 85 9 30 20 78 25 107 4 28 11 56 14 62 27 43 67 594 52 714 -8 62 -21 71
-52 36z"></path>
<path d="M5681 4693 c-31 -38 -33 -57 -27 -200 3 -70 8 -362 12 -648 l6 -520
41 -43 c23 -24 52 -48 64 -53 12 -4 31 -27 43 -50 23 -49 24 -53 9 -44 -6 4
-30 2 -54 -5 -37 -10 -48 -10 -76 4 -35 18 -124 22 -134 6 -3 -5 -18 -10 -32
-10 -71 0 -207 -86 -292 -184 -44 -52 -111 -168 -111 -193 0 -7 -4 -21 -9 -31
-20 -38 -34 -132 -34 -222 0 -94 17 -206 34 -224 5 -6 9 -17 9 -27 0 -9 11
-37 25 -63 14 -26 25 -52 25 -57 0 -20 79 -115 147 -179 69 -64 176 -130 211
-130 10 0 22 -4 27 -9 6 -5 24 -11 40 -13 l30 -3 13 -275 c7 -151 16 -345 20
-430 7 -151 8 -155 30 -158 25 -4 159 80 238 151 27 23 63 53 79 66 48 37 180
166 227 223 23 29 61 74 83 100 54 63 74 91 126 173 23 39 46 72 49 75 6 6 31
51 68 122 15 29 30 55 35 56 4 2 7 9 7 15 0 6 9 30 20 54 11 24 29 62 40 86
11 24 20 50 20 58 0 9 3 19 6 22 10 9 43 109 44 128 0 9 7 30 15 45 8 16 15
43 15 61 0 17 5 35 10 38 6 3 10 24 10 45 0 21 5 51 12 67 16 40 30 204 30
363 0 152 -13 348 -26 368 -4 7 -12 37 -17 65 -15 91 -26 141 -36 167 -6 14
-16 43 -22 65 -25 81 -121 300 -161 365 -5 8 -33 53 -61 100 -29 47 -55 87
-58 90 -4 3 -28 32 -53 65 -26 33 -57 72 -70 86 -13 14 -37 41 -53 60 -27 29
-201 190 -230 212 -157 117 -287 197 -320 197 -14 0 -32 -11 -44 -27z"></path>
</g>
</svg>